<svg width="1434" height="1162" fill="none" xmlns="http://www.w3.org/2000/svg"><path opacity=".5" d="M318.931 87.075C198.993 187.597 180.406 377.678 99.177 517.907 70.9 566.702 34.362 610.372 15.299 664.504c-43.765 123.902 16.469 264.449 97.089 362.856 38.444 46.95 83.348 89.96 137.678 109.74 41.779 15.22 86.578 15.85 130.555 16.25l770.459 7.93c86.03.87 126.57-25.59 188.42-92 42.63-45.73 65.31-96.255 80-160.003 17.83-77.351 20-114.851 0-212.351-32.09-85.359-57.24-152.336-107.65-225.991-81.81-119.332-79.93-299.823-184.12-395.088-48.63-44.462-112.81-61.899-175.351-70.617-117.9-16.458-229.577 14.61-345.358 10.277-98.969-3.698-205.987 2.748-288.09 71.568z" fill="#E7ECFF"/></svg>